<svg xmlns="http://www.w3.org/2000/svg" xmlns:xlink="http://www.w3.org/1999/xlink" width="40" height="42" viewBox="0 0 40 42"><image xlink:href="main-rocket.png" preserveAspectRatio="none" height="42" width="40"/><path d="M0 36.125c0-5.8.042-5.885 3.25-6.665 1.788-.435 3.512-.829 3.833-.875.321-.047 2.204 1.338 4.184 3.076 3.447 3.027 3.553 3.314 2.499 6.75L12.664 42H0zm18.5 4.216c5.698-2.998 8.5-6.418 8.5-10.373 0-2.458.694-4.283 2.116-5.563 3.41-3.068 8.08-10.37 9.466-14.801 1.153-3.684 1.291-2.236 1.351 14.146L40 42l-12.25-.04c-11.772-.039-12.133-.102-9.25-1.619zm-1.994-3.359c.683-2.152 6.275-7.895 7.744-7.953.412-.016.75.793.75 1.797 0 1.974-3.092 5.197-6.845 7.135-2.169 1.12-2.292 1.047-1.65-.979zM12.193 29.7l-3.11-3.208 4.787-6.496C21.678 9.4 29.989 3 35.943 3c1.725 0 1.92.457 1.388 3.25-1.132 5.937-4.524 11.177-11.715 18.098-9.53 9.17-9.668 9.226-13.423 5.351zm13.219-9.99c1.562-2.476-1.644-5.591-3.862-3.75-1.862 1.545-1.978 3.213-.338 4.854 1.472 1.47 2.795 1.123 4.2-1.104zm4.998-5.336c.714-1.86-1.008-4.373-2.997-4.373-2.028 0-3.568 3.445-2.166 4.847 1.669 1.669 4.439 1.415 5.163-.474zm4.41-6.127c.398-2.8-2.397-4.098-4.434-2.06-2.001 2-.707 5.002 1.991 4.617 1.321-.189 2.244-1.154 2.443-2.557zM.022 14.25L0 0l18.25.09c13.526.067 17.38.34 14.89 1.057-4.712 1.356-9.89 4.871-15.098 10.25C14.608 14.942 12.862 16 10.447 16c-3.656 0-5.56 1.825-8.37 8.018L.044 28.5zm5.168 8.5c1.49-2.706 3.152-4.366 4.575-4.57 3.085-.44 2.805.807-1.15 5.125-4.625 5.049-6.356 4.768-3.425-.555z" fill="#fefbf7"/><path d="M13.387 39.593c.333-1.324.793-3.012 1.023-3.75.23-.739-1.271-2.793-3.337-4.566-3.465-2.973-3.998-3.132-6.876-2.045-1.717.648-3.4.898-3.742.556-.781-.781 3.071-9.607 5.238-12.001C6.59 16.797 8.705 16 10.44 16c2.458 0 4.265-1.15 8.426-5.363C24.58 4.848 30.22 1.568 36.405.435l3.905-.716-.663 4.843c-.855 6.236-3.738 12.124-8.694 17.754C28 25.67 27 27.669 27 30.216c0 3.754-3.05 7.32-8.7 10.17-4.479 2.259-5.632 2.072-4.913-.793zM22.75 34.7c2.124-1.934 3.129-5.735 1.5-5.672-1.469.058-7.061 5.8-7.744 7.953-.643 2.026-.52 2.099 1.65.979 1.289-.666 3.357-2.133 4.594-3.26zm2.866-10.353c7.19-6.92 10.583-12.161 11.715-18.098.532-2.793.337-3.25-1.388-3.25-5.954 0-14.265 6.4-22.073 16.995L9.083 26.49l3.11 3.208c3.755 3.875 3.893 3.82 13.423-5.351zm-4.404-3.535c-1.64-1.641-1.524-3.309.338-4.855 2.218-1.84 5.424 1.275 3.862 3.751-1.405 2.227-2.728 2.575-4.2 1.103zm4.035-5.966C23.845 13.445 25.385 10 27.413 10c1.99 0 3.711 2.512 2.997 4.373-.724 1.889-3.494 2.143-5.163.474zm4.344-5.472c-.849-2.21 1.72-4.854 3.902-4.016 1.015.39 1.524 1.498 1.327 2.887-.399 2.808-4.265 3.643-5.23 1.13zM8.615 23.305c3.955-4.318 4.235-5.566 1.15-5.125-1.423.204-3.085 1.864-4.575 4.57-2.93 5.323-1.2 5.604 3.425.555z" fill="#fe9419"/></svg>